<svg clip-rule="evenodd" fill-rule="evenodd" height="300" image-rendering="optimizeQuality" shape-rendering="geometricPrecision" text-rendering="geometricPrecision" viewBox="0 0 600 700" width="300" xmlns="http://www.w3.org/2000/svg" version="1.1" xmlns:xlink="http://www.w3.org/1999/xlink" xmlns:svgjs="http://svgjs.dev/svgjs"><g transform="matrix(1,0,0,1,0,0)"><g id="Layer_x0020_1"><circle cx="400" cy="400" fill="#ff700d" r="400" fill-opacity="0" data-original-color="#ff700dff" stroke="none" stroke-opacity="1"/><path d="m644 570h-488c-16 0-16-24 0-24h16l35-63 94-197c4-7 13-9 19-3l30 26 36-73c5-9 17-8 22 0l76 144c5-6 14-5 19 1l123 165h18c16 0 16 24 0 24zm-444-24h72c2-1 53-46 58-48l97-37 42-59-30-55c-19 13-38 7-52-14-5-6-9-12-13-18l-61 124c-1 2-3 4-5 5l-81 52zm47-91 46-30 46-93-23-21zm181-130-31-57-11 23c6 8 13 18 21 29 7 11 12 13 21 5zm-119 221h287l-102-138-50 70c-1 2-3 4-5 5l-98 36z" fill="#ffffff" fill-opacity="1" data-original-color="#ffffffff" stroke="none" stroke-opacity="1"/></g></g></svg>